<svg width="450" height="450" viewBox="0 0 450 450" fill="none" xmlns="http://www.w3.org/2000/svg">
<rect width="450" height="450" fill="white"/>
<path fill-rule="evenodd" clip-rule="evenodd" d="M211.818 93.8329C250.794 50.8781 321.167 127.221 379.471 214.429C437.776 301.637 477.529 343.076 426.605 399.198C375.682 455.32 266.989 477.635 211.818 399.198C156.647 320.761 172.842 136.787 211.818 93.8329V93.8329Z" fill="url(#paint0_linear)"/>
<path fill-rule="evenodd" clip-rule="evenodd" d="M9.61019 208.583C-23.8802 174.451 35.6417 112.823 103.635 61.7644C171.628 10.7055 203.938 -24.1076 247.694 20.4876C291.451 65.0822 308.849 160.269 247.694 208.584C186.539 256.898 43.1006 242.715 9.61019 208.584V208.583Z" fill="#F4F4FC"/>
<path d="M222.095 30.8815L235.063 17.1233L248.033 30.8815L261.001 17.1233L273.97 30.8815L286.939 17.1233" stroke="#D3629D" stroke-width="4"/>
<path d="M222.095 43.2101L235.063 29.4519L248.033 43.2101L261.001 29.4519L273.97 43.2101L286.939 29.4519" stroke="#D3629D" stroke-width="4"/>
<path d="M222.095 55.539L235.063 41.7808L248.033 55.539L261.001 41.7808L273.97 55.539L286.939 41.7808" stroke="#D3629D" stroke-width="4"/>
<path d="M222.095 67.8677L235.063 54.1095L248.033 67.8677L261.001 54.1095L273.97 67.8677L286.939 54.1095" stroke="#D3629D" stroke-width="4"/>
<path fill-rule="evenodd" clip-rule="evenodd" d="M430.631 438.356C431.145 438.356 431.637 438.573 432.001 438.958C432.364 439.343 432.568 439.866 432.568 440.411C432.568 440.956 432.364 441.479 432.001 441.864C431.637 442.249 431.145 442.466 430.631 442.466C430.117 442.466 429.625 442.249 429.261 441.864C428.898 441.479 428.694 440.956 428.694 440.411C428.694 439.866 428.898 439.343 429.261 438.958C429.625 438.573 430.117 438.356 430.631 438.356ZM416.427 438.356C416.941 438.356 417.434 438.573 417.797 438.958C418.16 439.343 418.364 439.866 418.364 440.411C418.364 440.956 418.16 441.479 417.797 441.864C417.434 442.249 416.941 442.466 416.427 442.466C415.914 442.466 415.421 442.249 415.058 441.864C414.695 441.479 414.49 440.956 414.49 440.411C414.49 439.866 414.695 439.343 415.058 438.958C415.421 438.573 415.914 438.356 416.427 438.356ZM402.224 438.356C402.737 438.356 403.23 438.573 403.593 438.958C403.956 439.343 404.161 439.866 404.161 440.411C404.161 440.956 403.956 441.479 403.593 441.864C403.23 442.249 402.737 442.466 402.224 442.466C401.71 442.466 401.217 442.249 400.854 441.864C400.491 441.479 400.287 440.956 400.287 440.411C400.287 439.866 400.491 439.343 400.854 438.958C401.217 438.573 401.71 438.356 402.224 438.356ZM388.02 438.356C388.534 438.356 389.026 438.573 389.39 438.958C389.753 439.343 389.957 439.866 389.957 440.411C389.957 440.956 389.753 441.479 389.39 441.864C389.026 442.249 388.534 442.466 388.02 442.466C387.506 442.466 387.014 442.249 386.65 441.864C386.287 441.479 386.083 440.956 386.083 440.411C386.083 439.866 386.287 439.343 386.65 438.958C387.014 438.573 387.506 438.356 388.02 438.356ZM373.816 438.356C374.33 438.356 374.823 438.573 375.186 438.958C375.549 439.343 375.753 439.866 375.753 440.411C375.753 440.956 375.549 441.479 375.186 441.864C374.823 442.249 374.33 442.466 373.816 442.466C373.303 442.466 372.81 442.249 372.447 441.864C372.083 441.479 371.879 440.956 371.879 440.411C371.879 439.866 372.083 439.343 372.447 438.958C372.81 438.573 373.303 438.356 373.816 438.356ZM359.612 438.356C360.126 438.356 360.619 438.573 360.982 438.958C361.345 439.343 361.549 439.866 361.549 440.411C361.549 440.956 361.345 441.479 360.982 441.864C360.619 442.249 360.126 442.466 359.612 442.466C359.099 442.466 358.606 442.249 358.243 441.864C357.88 441.479 357.676 440.956 357.676 440.411C357.676 439.866 357.88 439.343 358.243 438.958C358.606 438.573 359.099 438.356 359.612 438.356ZM345.409 438.356C345.922 438.356 346.415 438.573 346.778 438.958C347.142 439.343 347.346 439.866 347.346 440.411C347.346 440.956 347.142 441.479 346.778 441.864C346.415 442.249 345.922 442.466 345.409 442.466C344.895 442.466 344.402 442.249 344.039 441.864C343.676 441.479 343.472 440.956 343.472 440.411C343.472 439.866 343.676 439.343 344.039 438.958C344.402 438.573 344.895 438.356 345.409 438.356ZM331.205 438.356C331.719 438.356 332.211 438.573 332.575 438.958C332.938 439.343 333.142 439.866 333.142 440.411C333.142 440.956 332.938 441.479 332.575 441.864C332.211 442.249 331.719 442.466 331.205 442.466C330.691 442.466 330.199 442.249 329.835 441.864C329.472 441.479 329.268 440.956 329.268 440.411C329.268 439.866 329.472 439.343 329.835 438.958C330.199 438.573 330.691 438.356 331.205 438.356ZM317.001 438.356C317.515 438.356 318.008 438.573 318.371 438.958C318.734 439.343 318.938 439.866 318.938 440.411C318.938 440.956 318.734 441.479 318.371 441.864C318.008 442.249 317.515 442.466 317.001 442.466C316.488 442.466 315.995 442.249 315.632 441.864C315.269 441.479 315.064 440.956 315.064 440.411C315.064 439.866 315.269 439.343 315.632 438.958C315.995 438.573 316.488 438.356 317.001 438.356ZM317.001 423.288C317.515 423.288 318.008 423.504 318.371 423.89C318.734 424.275 318.938 424.798 318.938 425.343C318.938 425.887 318.734 426.41 318.371 426.795C318.008 427.181 317.515 427.397 317.001 427.397C316.488 427.397 315.995 427.181 315.632 426.795C315.269 426.41 315.064 425.887 315.064 425.343C315.064 424.798 315.269 424.275 315.632 423.89C315.995 423.504 316.488 423.288 317.001 423.288ZM430.631 423.288C431.145 423.288 431.637 423.504 432.001 423.89C432.364 424.275 432.568 424.798 432.568 425.343C432.568 425.887 432.364 426.41 432.001 426.795C431.637 427.181 431.145 427.397 430.631 427.397C430.117 427.397 429.625 427.181 429.261 426.795C428.898 426.41 428.694 425.887 428.694 425.343C428.694 424.798 428.898 424.275 429.261 423.89C429.625 423.504 430.117 423.288 430.631 423.288ZM416.427 423.288C416.941 423.288 417.434 423.504 417.797 423.89C418.16 424.275 418.364 424.798 418.364 425.343C418.364 425.887 418.16 426.41 417.797 426.795C417.434 427.181 416.941 427.397 416.427 427.397C415.914 427.397 415.421 427.181 415.058 426.795C414.695 426.41 414.49 425.887 414.49 425.343C414.49 424.798 414.695 424.275 415.058 423.89C415.421 423.504 415.914 423.288 416.427 423.288ZM402.224 423.288C402.737 423.288 403.23 423.504 403.593 423.89C403.956 424.275 404.161 424.798 404.161 425.343C404.161 425.887 403.956 426.41 403.593 426.795C403.23 427.181 402.737 427.397 402.224 427.397C401.71 427.397 401.217 427.181 400.854 426.795C400.491 426.41 400.287 425.887 400.287 425.343C400.287 424.798 400.491 424.275 400.854 423.89C401.217 423.504 401.71 423.288 402.224 423.288ZM388.02 423.288C388.534 423.288 389.026 423.504 389.39 423.89C389.753 424.275 389.957 424.798 389.957 425.343C389.957 425.887 389.753 426.41 389.39 426.795C389.026 427.181 388.534 427.397 388.02 427.397C387.506 427.397 387.014 427.181 386.65 426.795C386.287 426.41 386.083 425.887 386.083 425.343C386.083 424.798 386.287 424.275 386.65 423.89C387.014 423.504 387.506 423.288 388.02 423.288ZM373.816 423.288C374.33 423.288 374.823 423.504 375.186 423.89C375.549 424.275 375.753 424.798 375.753 425.343C375.753 425.887 375.549 426.41 375.186 426.795C374.823 427.181 374.33 427.397 373.816 427.397C373.303 427.397 372.81 427.181 372.447 426.795C372.083 426.41 371.879 425.887 371.879 425.343C371.879 424.798 372.083 424.275 372.447 423.89C372.81 423.504 373.303 423.288 373.816 423.288ZM359.612 423.288C360.126 423.288 360.619 423.504 360.982 423.89C361.345 424.275 361.549 424.798 361.549 425.343C361.549 425.887 361.345 426.41 360.982 426.795C360.619 427.181 360.126 427.397 359.612 427.397C359.099 427.397 358.606 427.181 358.243 426.795C357.88 426.41 357.676 425.887 357.676 425.343C357.676 424.798 357.88 424.275 358.243 423.89C358.606 423.504 359.099 423.288 359.612 423.288ZM345.409 423.288C345.922 423.288 346.415 423.504 346.778 423.89C347.142 424.275 347.346 424.798 347.346 425.343C347.346 425.887 347.142 426.41 346.778 426.795C346.415 427.181 345.922 427.397 345.409 427.397C344.895 427.397 344.402 427.181 344.039 426.795C343.676 426.41 343.472 425.887 343.472 425.343C343.472 424.798 343.676 424.275 344.039 423.89C344.402 423.504 344.895 423.288 345.409 423.288ZM331.205 423.288C331.719 423.288 332.211 423.504 332.575 423.89C332.938 424.275 333.142 424.798 333.142 425.343C333.142 425.887 332.938 426.41 332.575 426.795C332.211 427.181 331.719 427.397 331.205 427.397C330.691 427.397 330.199 427.181 329.835 426.795C329.472 426.41 329.268 425.887 329.268 425.343C329.268 424.798 329.472 424.275 329.835 423.89C330.199 423.504 330.691 423.288 331.205 423.288ZM331.205 408.219C331.719 408.219 332.211 408.436 332.575 408.821C332.938 409.206 333.142 409.729 333.142 410.274C333.142 410.819 332.938 411.342 332.575 411.727C332.211 412.112 331.719 412.329 331.205 412.329C330.691 412.329 330.199 412.112 329.835 411.727C329.472 411.342 329.268 410.819 329.268 410.274C329.268 409.729 329.472 409.206 329.835 408.821C330.199 408.436 330.691 408.219 331.205 408.219ZM345.409 408.219C345.922 408.219 346.415 408.436 346.778 408.821C347.142 409.206 347.346 409.729 347.346 410.274C347.346 410.819 347.142 411.342 346.778 411.727C346.415 412.112 345.922 412.329 345.409 412.329C344.895 412.329 344.402 412.112 344.039 411.727C343.676 411.342 343.472 410.819 343.472 410.274C343.472 409.729 343.676 409.206 344.039 408.821C344.402 408.436 344.895 408.219 345.409 408.219ZM359.612 408.219C360.126 408.219 360.619 408.436 360.982 408.821C361.345 409.206 361.549 409.729 361.549 410.274C361.549 410.819 361.345 411.342 360.982 411.727C360.619 412.112 360.126 412.329 359.612 412.329C359.099 412.329 358.606 412.112 358.243 411.727C357.88 411.342 357.676 410.819 357.676 410.274C357.676 409.729 357.88 409.206 358.243 408.821C358.606 408.436 359.099 408.219 359.612 408.219ZM373.816 408.219C374.33 408.219 374.823 408.436 375.186 408.821C375.549 409.206 375.753 409.729 375.753 410.274C375.753 410.819 375.549 411.342 375.186 411.727C374.823 412.112 374.33 412.329 373.816 412.329C373.303 412.329 372.81 412.112 372.447 411.727C372.083 411.342 371.879 410.819 371.879 410.274C371.879 409.729 372.083 409.206 372.447 408.821C372.81 408.436 373.303 408.219 373.816 408.219ZM388.02 408.219C388.534 408.219 389.026 408.436 389.39 408.821C389.753 409.206 389.957 409.729 389.957 410.274C389.957 410.819 389.753 411.342 389.39 411.727C389.026 412.112 388.534 412.329 388.02 412.329C387.506 412.329 387.014 412.112 386.65 411.727C386.287 411.342 386.083 410.819 386.083 410.274C386.083 409.729 386.287 409.206 386.65 408.821C387.014 408.436 387.506 408.219 388.02 408.219ZM402.224 408.219C402.737 408.219 403.23 408.436 403.593 408.821C403.956 409.206 404.161 409.729 404.161 410.274C404.161 410.819 403.956 411.342 403.593 411.727C403.23 412.112 402.737 412.329 402.224 412.329C401.71 412.329 401.217 412.112 400.854 411.727C400.491 411.342 400.287 410.819 400.287 410.274C400.287 409.729 400.491 409.206 400.854 408.821C401.217 408.436 401.71 408.219 402.224 408.219ZM416.427 408.219C416.941 408.219 417.434 408.436 417.797 408.821C418.16 409.206 418.364 409.729 418.364 410.274C418.364 410.819 418.16 411.342 417.797 411.727C417.434 412.112 416.941 412.329 416.427 412.329C415.914 412.329 415.421 412.112 415.058 411.727C414.695 411.342 414.49 410.819 414.49 410.274C414.49 409.729 414.695 409.206 415.058 408.821C415.421 408.436 415.914 408.219 416.427 408.219ZM430.631 408.219C431.145 408.219 431.637 408.436 432.001 408.821C432.364 409.206 432.568 409.729 432.568 410.274C432.568 410.819 432.364 411.342 432.001 411.727C431.637 412.112 431.145 412.329 430.631 412.329C430.117 412.329 429.625 412.112 429.261 411.727C428.898 411.342 428.694 410.819 428.694 410.274C428.694 409.729 428.898 409.206 429.261 408.821C429.625 408.436 430.117 408.219 430.631 408.219ZM317.001 408.219C317.515 408.219 318.008 408.436 318.371 408.821C318.734 409.206 318.938 409.729 318.938 410.274C318.938 410.819 318.734 411.342 318.371 411.727C318.008 412.112 317.515 412.329 317.001 412.329C316.488 412.329 315.995 412.112 315.632 411.727C315.269 411.342 315.064 410.819 315.064 410.274C315.064 409.729 315.269 409.206 315.632 408.821C315.995 408.436 316.488 408.219 317.001 408.219ZM331.205 393.151C331.719 393.151 332.211 393.367 332.575 393.753C332.938 394.138 333.142 394.661 333.142 395.205C333.142 395.75 332.938 396.273 332.575 396.658C332.211 397.044 331.719 397.26 331.205 397.26C330.691 397.26 330.199 397.044 329.835 396.658C329.472 396.273 329.268 395.75 329.268 395.205C329.268 394.661 329.472 394.138 329.835 393.753C330.199 393.367 330.691 393.151 331.205 393.151ZM345.409 393.151C345.922 393.151 346.415 393.367 346.778 393.753C347.142 394.138 347.346 394.661 347.346 395.205C347.346 395.75 347.142 396.273 346.778 396.658C346.415 397.044 345.922 397.26 345.409 397.26C344.895 397.26 344.402 397.044 344.039 396.658C343.676 396.273 343.472 395.75 343.472 395.205C343.472 394.661 343.676 394.138 344.039 393.753C344.402 393.367 344.895 393.151 345.409 393.151ZM359.612 393.151C360.126 393.151 360.619 393.367 360.982 393.753C361.345 394.138 361.549 394.661 361.549 395.205C361.549 395.75 361.345 396.273 360.982 396.658C360.619 397.044 360.126 397.26 359.612 397.26C359.099 397.26 358.606 397.044 358.243 396.658C357.88 396.273 357.676 395.75 357.676 395.205C357.676 394.661 357.88 394.138 358.243 393.753C358.606 393.367 359.099 393.151 359.612 393.151ZM373.816 393.151C374.33 393.151 374.823 393.367 375.186 393.753C375.549 394.138 375.753 394.661 375.753 395.205C375.753 395.75 375.549 396.273 375.186 396.658C374.823 397.044 374.33 397.26 373.816 397.26C373.303 397.26 372.81 397.044 372.447 396.658C372.083 396.273 371.879 395.75 371.879 395.205C371.879 394.661 372.083 394.138 372.447 393.753C372.81 393.367 373.303 393.151 373.816 393.151ZM388.02 393.151C388.534 393.151 389.026 393.367 389.39 393.753C389.753 394.138 389.957 394.661 389.957 395.205C389.957 395.75 389.753 396.273 389.39 396.658C389.026 397.044 388.534 397.26 388.02 397.26C387.506 397.26 387.014 397.044 386.65 396.658C386.287 396.273 386.083 395.75 386.083 395.205C386.083 394.661 386.287 394.138 386.65 393.753C387.014 393.367 387.506 393.151 388.02 393.151ZM402.224 393.151C402.737 393.151 403.23 393.367 403.593 393.753C403.956 394.138 404.161 394.661 404.161 395.205C404.161 395.75 403.956 396.273 403.593 396.658C403.23 397.044 402.737 397.26 402.224 397.26C401.71 397.26 401.217 397.044 400.854 396.658C400.491 396.273 400.287 395.75 400.287 395.205C400.287 394.661 400.491 394.138 400.854 393.753C401.217 393.367 401.71 393.151 402.224 393.151ZM416.427 393.151C416.941 393.151 417.434 393.367 417.797 393.753C418.16 394.138 418.364 394.661 418.364 395.205C418.364 395.75 418.16 396.273 417.797 396.658C417.434 397.044 416.941 397.26 416.427 397.26C415.914 397.26 415.421 397.044 415.058 396.658C414.695 396.273 414.49 395.75 414.49 395.205C414.49 394.661 414.695 394.138 415.058 393.753C415.421 393.367 415.914 393.151 416.427 393.151ZM430.631 393.151C431.145 393.151 431.637 393.367 432.001 393.753C432.364 394.138 432.568 394.661 432.568 395.205C432.568 395.75 432.364 396.273 432.001 396.658C431.637 397.044 431.145 397.26 430.631 397.26C430.117 397.26 429.625 397.044 429.261 396.658C428.898 396.273 428.694 395.75 428.694 395.205C428.694 394.661 428.898 394.138 429.261 393.753C429.625 393.367 430.117 393.151 430.631 393.151ZM317.001 393.151C317.515 393.151 318.008 393.367 318.371 393.753C318.734 394.138 318.938 394.661 318.938 395.205C318.938 395.75 318.734 396.273 318.371 396.658C318.008 397.044 317.515 397.26 317.001 397.26C316.488 397.26 315.995 397.044 315.632 396.658C315.269 396.273 315.064 395.75 315.064 395.205C315.064 394.661 315.269 394.138 315.632 393.753C315.995 393.367 316.488 393.151 317.001 393.151Z" fill="#CF6BCB"/>
<defs>
<linearGradient id="paint0_linear" x1="369.237" y1="197.096" x2="182.048" y2="397.071" gradientUnits="userSpaceOnUse">
<stop stop-color="#9975D0"/>
<stop offset="1" stop-color="#4A3FDB"/>
</linearGradient>
</defs>
</svg>
